<svg xmlns="http://www.w3.org/2000/svg" xmlns:xlink="http://www.w3.org/1999/xlink" viewBox="0 0 119 160"><defs><style>.cls-1{fill:none;}.cls-2{fill:url(#Безымянный_градиент_6);}.cls-3{fill:url(#Безымянный_градиент_6-2);}.cls-4{fill:url(#Безымянный_градиент_5);}.cls-5{clip-path:url(#clip-path);}.cls-6{fill:#fff385;}.cls-7{fill:url(#Безымянный_градиент_6-3);}</style><linearGradient id="Безымянный_градиент_6" x1="8.5" y1="105.69" x2="8.5" y2="59.88" gradientTransform="matrix(1, 0, 0, -1, 0, 162)" gradientUnits="userSpaceOnUse"><stop offset="0" stop-color="#db7910"/><stop offset="0.11" stop-color="#f6a200"/><stop offset="0.2" stop-color="#fde8b5"/><stop offset="0.41" stop-color="#ffe379"/><stop offset="0.72" stop-color="#f6a200"/><stop offset="1" stop-color="#873a06"/></linearGradient><linearGradient id="Безымянный_градиент_6-2" x1="64" y1="160.88" x2="64" y2="3.41" xlink:href="#Безымянный_градиент_6"/><linearGradient id="Безымянный_градиент_5" x1="78.86" y1="24.36" x2="78.86" y2="145.03" gradientTransform="matrix(1, 0, 0, -1, 0, 162)" gradientUnits="userSpaceOnUse"><stop offset="0" stop-color="#f6a200"/><stop offset="0.29" stop-color="#873a06"/><stop offset="0.72" stop-color="#f6a200"/><stop offset="1" stop-color="#5c2805"/></linearGradient><clipPath id="clip-path"><rect class="cls-1" x="36" y="66" width="33" height="28"/></clipPath><linearGradient id="Безымянный_градиент_6-3" x1="49.6" y1="163.91" x2="49.6" y2="6.13" xlink:href="#Безымянный_градиент_6"/></defs><title>drum-corner</title><g id="Слой_2" data-name="Слой 2"><g id="Слой_1-2" data-name="Слой 1"><path class="cls-2" d="M14.43,113.89,17,115V45l-2.57,1.11C5.34,49.93,0,55.56,0,61.49V98.41C0,104.44,5.34,110.07,14.43,113.89Z"/><path class="cls-3" d="M119,0H78.05C66.45,0,55.42,2.2,48.59,5.89,32.46,14.57,9,35,9,80.25s23.37,65.38,39.51,74c6.91,3.59,17.77,5.79,29.3,5.79H119Z"/><path class="cls-4" d="M119,142.63H102.83c-9.06,0-17.53-1.69-23-4.59-12.59-6.69-30.94-22.56-30.94-57.89S67.27,28.85,79.86,22c5.44-2.9,14-4.59,23-4.59H119V11.88H97.48c-9.88,0-19.26,1.89-25.11,5C58.63,24.25,38.71,41.62,38.71,80.15s19.92,55.7,33.66,63c5.93,3.1,15.15,5,25,5H119Z"/><g class="cls-5"><path class="cls-6" d="M69,80,36,66V94Z"/><path class="cls-7" d="M63.2,80,36,66V94Z"/></g></g></g></svg>