<svg width="60" height="60" viewBox="0 0 60 60" fill="none" xmlns="http://www.w3.org/2000/svg">
<path d="M56.5719 3.42773C52.0015 -1.14258 44.5661 -1.14258 39.9958 3.42773L30.8277 12.5954C27.5203 15.9032 26.5146 20.8603 28.2038 25.1656L25.1652 28.2047C20.8594 26.5155 15.9023 27.5212 12.595 30.8286L3.42641 39.9966C-1.14344 44.5665 -1.14344 52.0024 3.42641 56.5727C7.99673 61.1426 15.4322 61.1426 20.0025 56.5727L29.1706 47.4046C32.4784 44.0968 33.4836 39.1397 31.7945 34.8344L34.8331 31.7958C39.1732 33.4982 44.1202 32.455 47.4033 29.1714L56.5719 20.0034C61.1417 15.4335 61.1417 7.99759 56.5719 3.42773ZM27.513 45.7471L18.3449 54.9147C14.6805 58.5796 8.74929 58.58 5.08443 54.9147C1.41958 51.2503 1.41912 45.3195 5.08443 41.6542L14.2525 32.4861C16.6462 30.092 20.1201 29.2062 23.3108 30.0591L20.0515 33.3183C18.8004 33.4964 17.6377 34.0732 16.7382 34.9731L7.57146 44.1408C5.28356 46.4273 5.2831 50.1411 7.57101 52.4277C9.85754 54.7156 13.5714 54.7165 15.8584 52.4281L25.0265 43.2614C25.926 42.3615 26.5032 41.1987 26.6808 39.9481L29.9405 36.6888C30.7929 39.8795 29.9071 43.353 27.513 45.7471ZM18.3962 41.602C19.3369 42.5436 20.6251 43.0499 22.008 42.9643L14.2003 50.7706C12.8298 52.142 10.6 52.1425 9.22857 50.7701C7.85757 49.4 7.85665 47.1703 9.22903 45.7988L17.0353 37.9912C16.9488 39.3842 17.4628 40.6696 18.3962 41.602ZM24.7307 38.5831L23.3684 39.9449C22.4566 40.8572 20.9702 40.8618 20.0538 39.9445C19.1396 39.0317 19.1396 37.5449 20.0542 36.6307L36.6298 20.0551C37.5417 19.1432 39.0281 19.1382 39.9445 20.0555C40.8587 20.9688 40.8587 22.4551 39.9441 23.3693L24.7307 38.5831ZM45.7462 27.5139C43.3521 29.9075 39.8786 30.7938 36.688 29.9409L39.9473 26.6817C41.1974 26.5041 42.3597 25.9273 43.2592 25.0282C43.2596 25.0278 43.2601 25.0273 43.2601 25.0269L52.4268 15.8592C54.7143 13.5732 54.7156 9.85931 52.4273 7.57233C50.5372 5.68085 47.6079 5.30914 45.304 6.66824C44.7465 6.99692 44.5615 7.71561 44.8902 8.27316C45.2193 8.83072 45.938 9.01611 46.4951 8.68744C47.8776 7.8717 49.6354 8.09464 50.7697 9.22989C52.1412 10.6004 52.1416 12.8302 50.7697 14.2017L42.9635 22.0088C43.0495 20.6163 42.5359 19.3309 41.6021 18.398C40.7181 17.5131 39.5412 17.0256 38.2874 17.0256C38.1881 17.0256 38.0892 17.0302 37.9908 17.0361L39.9962 15.0307C40.454 14.5729 40.454 13.8309 39.9962 13.3731C39.5385 12.9153 38.7964 12.9153 38.3387 13.3731L34.9723 16.739C34.0723 17.639 33.4955 18.8017 33.3175 20.0523L30.0582 23.3116C29.2054 20.121 30.0916 16.647 32.4853 14.2534L41.6533 5.0853C45.3177 1.4209 51.249 1.41998 54.9143 5.0853C58.5787 8.75015 58.5792 14.6809 54.9143 18.3463L45.7462 27.5139Z" fill="#FFB900"/>
</svg>
