<svg width="13" height="13" viewBox="0 0 13 13" fill="none" xmlns="http://www.w3.org/2000/svg">
<path d="M6.386 4.115C6.15867 4.115 5.96067 4.03433 5.792 3.873C5.63067 3.70433 5.55 3.50633 5.55 3.279C5.55 3.05167 5.63067 2.85733 5.792 2.696C5.96067 2.53467 6.15867 2.454 6.386 2.454C6.62067 2.454 6.81867 2.53467 6.98 2.696C7.14133 2.85733 7.222 3.05167 7.222 3.279C7.222 3.50633 7.14133 3.70433 6.98 3.873C6.81867 4.03433 6.62067 4.115 6.386 4.115ZM7.09 10H5.693V4.687H7.09V10Z" fill="white"/>
<circle cx="6.5" cy="6.5" r="6.25" stroke="white" stroke-width="0.5"/>
</svg>
