<svg width="92" height="92" viewBox="0 0 92 92" fill="none" xmlns="http://www.w3.org/2000/svg">
<g filter="url(#filter0_d)">
<g clip-path="url(#clip0)">
<path d="M45.4022 43.8626C45.6004 43.87 45.7991 43.875 45.9996 43.875C46.1854 43.875 46.3704 43.8709 46.5548 43.864C50.7516 43.9547 54.8793 45.0652 58.5263 47.0949C59.6574 47.7243 61.0847 47.3178 61.7141 46.1867C62.3436 45.0556 61.9371 43.6283 60.8059 42.9988C59.1269 42.0645 57.3622 41.2946 55.5403 40.6958C59.4212 37.7863 61.9371 33.1501 61.9371 27.9375C61.9371 19.1494 54.7873 12 45.9996 12C37.2114 12 30.0621 19.1494 30.0621 27.9375C30.0621 33.1533 32.5807 37.7922 36.4657 40.7013C32.9066 41.8727 29.5668 43.6951 26.6435 46.0993C21.2845 50.5075 17.5583 56.6562 16.1515 63.4128C15.7107 65.53 16.239 67.7043 17.6004 69.3788C18.9549 71.0446 20.964 72 23.1118 72H41.4293C42.7234 72 43.773 70.9508 43.773 69.6562C43.773 68.3617 42.7234 67.3125 41.4293 67.3125H23.1118C22.1112 67.3125 21.5078 66.754 21.2368 66.4212C20.7695 65.8463 20.5886 65.0983 20.7406 64.3682C23.1746 52.6773 33.4916 44.1396 45.4022 43.8626ZM34.7496 27.9375C34.7496 21.7343 39.796 16.6875 45.9996 16.6875C52.2027 16.6875 57.2496 21.7343 57.2496 27.9375C57.2496 33.9539 52.5026 38.8817 46.5576 39.1738C46.3713 39.1701 46.1854 39.1678 45.9996 39.1678C45.8165 39.1678 45.6338 39.1706 45.4512 39.1738C39.5016 38.8872 34.7496 33.9571 34.7496 27.9375ZM75.9996 55.5736C76.0019 57.1392 75.3898 58.6104 74.277 59.7173L69.9177 64.0523C69.4604 64.5073 68.8626 64.7344 68.2652 64.7344C67.6632 64.7344 67.0613 64.5037 66.6031 64.0432C65.6903 63.1253 65.6944 61.6417 66.6122 60.7289L69.5341 57.8231H56.2521C53.6355 57.8231 51.5074 59.9517 51.5074 62.5678C51.5074 65.1839 53.6099 67.3125 56.1949 67.3125C57.489 67.3125 58.5386 68.3617 58.5386 69.6562C58.5386 70.9508 57.489 72 56.1949 72C53.674 72 51.3119 71.0158 49.5445 69.2282C47.7871 67.4512 46.8199 65.0859 46.8199 62.5678C46.8199 57.3667 51.051 53.1356 56.2521 53.1356H69.319L66.6168 50.4636C65.6967 49.5531 65.688 48.069 66.5985 47.1489C67.5085 46.2288 68.9926 46.2201 69.9131 47.1306L74.2656 51.4345C75.3816 52.5382 75.9973 54.0081 75.9996 55.5736Z" fill="#E39600"/>
</g>
</g>
<defs>
<filter id="filter0_d" x="0" y="0" width="92" height="92" filterUnits="userSpaceOnUse" color-interpolation-filters="sRGB">
<feFlood flood-opacity="0" result="BackgroundImageFix"/>
<feColorMatrix in="SourceAlpha" type="matrix" values="0 0 0 0 0 0 0 0 0 0 0 0 0 0 0 0 0 0 127 0"/>
<feOffset dy="4"/>
<feGaussianBlur stdDeviation="8"/>
<feColorMatrix type="matrix" values="0 0 0 0 0.890196 0 0 0 0 0.588235 0 0 0 0 0 0 0 0 1 0"/>
<feBlend mode="normal" in2="BackgroundImageFix" result="effect1_dropShadow"/>
<feBlend mode="normal" in="SourceGraphic" in2="effect1_dropShadow" result="shape"/>
</filter>
<clipPath id="clip0">
<rect x="16" y="12" width="60" height="60" fill="white"/>
</clipPath>
</defs>
</svg>
