<svg width="112" height="112" viewBox="0 0 112 112" fill="none" xmlns="http://www.w3.org/2000/svg">
<g filter="url(#filter0_d)">
<g clip-path="url(#clip0)">
<path d="M92.3527 61.9487L94.6415 59.6604C96.0819 58.2194 96.0819 55.875 94.6415 54.434C93.9433 53.7364 93.0155 53.3518 92.028 53.3518C91.287 53.3518 90.579 53.5685 89.9772 53.972L89.495 52.3533L91.9724 49.8753C93.4135 48.4342 93.4135 46.0899 91.9724 44.6494C90.6461 43.3225 88.5551 43.2206 87.1067 44.3369L84.1709 34.481C85.3434 33.3518 86.4664 32.2532 87.5248 31.1948C90.5747 28.1443 93.0546 24.9161 94.5078 22.1036C96.9633 17.3502 95.9354 14.8093 94.6409 13.5148C93.3469 12.2202 90.806 11.193 86.052 13.6484C83.2401 15.1011 80.0114 17.5809 76.9614 20.6315C75.9031 21.6898 74.8038 22.8123 73.6753 23.9847L63.8187 21.0489C64.935 19.6012 64.8331 17.5101 63.5068 16.1832C62.0658 14.7428 59.7214 14.7422 58.281 16.1832L55.803 18.6612L54.1837 18.1791C54.5871 17.5766 54.8038 16.8686 54.8038 16.1277C54.8038 15.1407 54.4193 14.2124 53.7216 13.5148C52.2812 12.0737 49.9362 12.0737 48.4958 13.5148L46.2076 15.803L34.5444 12.3288C34.1287 12.2055 33.6795 12.3191 33.3737 12.6255L30.3714 15.6278C29.8673 16.1313 29.9338 16.9925 30.5087 17.4131L59.9363 38.953C53.3011 46.4341 46.9095 53.9244 42.3972 59.2759L33.7412 55.9465C33.306 55.7792 32.8134 55.8836 32.4838 56.2132L28.9255 59.7715C28.4653 60.2323 28.4653 60.9788 28.9255 61.439L46.7166 79.2302C47.1707 79.6849 47.93 79.6849 48.3847 79.2302L51.9425 75.6724C52.2721 75.3428 52.377 74.8497 52.2092 74.4145L48.8803 65.7591C54.2319 61.2468 61.7215 54.8551 69.2032 48.2194L71.5409 51.414C71.9559 51.981 72.7976 52.0542 73.3066 51.5708C73.7308 51.168 73.7894 50.4923 73.4446 50.0211L70.9733 46.6447C74.8856 43.1529 78.7491 39.6299 82.2544 36.3102L93.3659 73.6119L91.8333 75.1439L76.5616 54.2796C76.1771 53.7541 75.4392 53.6399 74.9137 54.0245C74.3876 54.4096 74.2734 55.1475 74.6586 55.673L90.7432 77.6475C91.1637 78.2225 92.0249 78.289 92.5285 77.7849L95.5308 74.7825C95.8372 74.4767 95.9507 74.0269 95.8274 73.6119L92.3527 61.9487ZM59.9491 17.8513C60.4642 17.3362 61.3242 17.3362 61.8393 17.8513C62.3606 18.3725 62.3606 19.2203 61.8393 19.7416L61.2864 20.2945L58.3731 19.4266L59.9491 17.8513ZM50.1639 15.1828C50.6845 14.6616 51.5329 14.6616 52.0542 15.1828C52.5754 15.7041 52.5754 16.5519 52.0542 17.0731L51.6904 17.4363L48.7778 16.569L50.1639 15.1828ZM33.0118 16.3224L34.5444 14.7904L71.8461 25.9012C68.5264 29.4071 65.0034 33.2706 61.511 37.183L33.0118 16.3224ZM33.6099 58.4233L40.7907 61.1851C38.9896 63.3299 37.6083 64.9894 36.7935 65.9715L31.4273 60.6053L33.6099 58.4233ZM38.4689 67.6469C42.5803 62.6866 64.3119 36.6166 78.6295 22.2989C81.4701 19.4578 84.5707 17.0688 87.1348 15.7444C89.0598 14.7495 91.6355 13.845 92.9734 15.1828C94.3113 16.5207 93.4062 19.0964 92.4119 21.0215C91.0874 23.5856 88.6979 26.6855 85.8567 29.5267C71.5403 43.8432 45.4697 65.5754 40.5094 69.6873L38.4689 67.6469ZM49.733 74.5463L47.551 76.7283L42.1848 71.3621C43.1662 70.5479 44.8264 69.1667 46.9712 67.3655L49.733 74.5463ZM91.0831 56.1021C91.6044 55.5809 92.4522 55.5809 92.9734 56.1021C93.4947 56.6233 93.4947 57.4711 92.9734 57.9924L91.5873 59.3785L90.7194 56.4659L91.0831 56.1021ZM88.4147 46.3169C88.9353 45.7957 89.7837 45.7963 90.3049 46.3169C90.8201 46.8321 90.8201 47.692 90.3049 48.2072L88.729 49.7831L87.8611 46.8699L88.4147 46.3169Z" fill="#E39600"/>
<path d="M86.7941 80.079L76.73 90.1431C76.301 90.5728 76.2723 91.282 76.6672 91.7435C77.1085 92.2586 77.9184 92.2909 78.3981 91.8112L88.4622 81.7471C88.9231 81.2863 88.9231 80.5399 88.4622 80.079C88.002 79.6188 87.255 79.6188 86.7941 80.079Z" fill="#E39600"/>
<path d="M83.4298 76.7145C83.8906 76.2543 83.8906 75.5072 83.4298 75.047C82.9696 74.5862 82.2225 74.5862 81.7623 75.047L75.472 81.3367C75.0429 81.7664 75.0142 82.4756 75.4091 82.9371C75.8504 83.4522 76.6604 83.4845 77.1401 83.0048L83.4298 76.7145Z" fill="#E39600"/>
<path d="M79.6561 70.4248C80.1169 69.964 80.1169 69.217 79.6561 68.7567C79.1953 68.2959 78.4488 68.2959 77.988 68.7567L73.5849 73.1598C73.1559 73.5889 73.1272 74.2987 73.5227 74.7602C73.9634 75.2753 74.7733 75.3077 75.253 74.8279L79.6561 70.4248Z" fill="#E39600"/>
<path d="M28.0776 20.3227C27.6167 19.8625 26.8697 19.8625 26.4095 20.3227L16.3454 30.3874C15.8846 30.8476 15.8846 31.5947 16.3454 32.0549C16.7995 32.509 17.5587 32.509 18.0135 32.0549L28.0776 21.9908C28.5378 21.53 28.5378 20.7835 28.0776 20.3227Z" fill="#E39600"/>
<path d="M33.1094 25.3551C32.6486 24.8943 31.9021 24.8943 31.4419 25.3551L25.1517 31.6454C24.722 32.0745 24.6939 32.7837 25.0888 33.2452C25.5301 33.7603 26.3394 33.7926 26.8191 33.3129L33.1094 27.0232C33.5702 26.5624 33.5702 25.8153 33.1094 25.3551Z" fill="#E39600"/>
<path d="M33.3286 35.2C33.7833 35.6541 34.5419 35.6541 34.9966 35.2L39.3997 30.7969C39.8599 30.3361 39.8599 29.5897 39.3997 29.1288C38.9389 28.6686 38.1925 28.6686 37.7316 29.1288L33.3286 33.5319C32.8683 33.9927 32.8683 34.7392 33.3286 35.2Z" fill="#E39600"/>
</g>
</g>
<defs>
<filter id="filter0_d" x="0" y="0" width="112" height="112" filterUnits="userSpaceOnUse" color-interpolation-filters="sRGB">
<feFlood flood-opacity="0" result="BackgroundImageFix"/>
<feColorMatrix in="SourceAlpha" type="matrix" values="0 0 0 0 0 0 0 0 0 0 0 0 0 0 0 0 0 0 127 0"/>
<feOffset dy="4"/>
<feGaussianBlur stdDeviation="8"/>
<feColorMatrix type="matrix" values="0 0 0 0 0.890196 0 0 0 0 0.588235 0 0 0 0 0 0 0 0 1 0"/>
<feBlend mode="normal" in2="BackgroundImageFix" result="effect1_dropShadow"/>
<feBlend mode="normal" in="SourceGraphic" in2="effect1_dropShadow" result="shape"/>
</filter>
<clipPath id="clip0">
<rect x="16" y="12" width="80" height="80" fill="white"/>
</clipPath>
</defs>
</svg>
