<svg width="112" height="92" viewBox="0 0 112 92" fill="none" xmlns="http://www.w3.org/2000/svg">
<g filter="url(#filter0_d)">
<g clip-path="url(#clip0)">
<path d="M36.6458 37.5103H23.748V40.0929H36.6458V37.5103Z" fill="#E39600"/>
<path d="M43.1025 45.2583H23.748V47.841H43.1025V45.2583Z" fill="#E39600"/>
<path d="M70.2051 53.0063H23.748V55.589H70.2051V53.0063Z" fill="#E39600"/>
<path d="M31.4961 60.739H23.748V63.3217H31.4961V60.739Z" fill="#E39600"/>
<path d="M44.3938 60.739H36.6458V63.3217H44.3938V60.739Z" fill="#E39600"/>
<path d="M57.3074 60.739H49.5593V63.3217H57.3074V60.739Z" fill="#E39600"/>
<path d="M68.9138 36.2188C67.9689 36.2188 67.1028 36.4865 66.3469 36.9274C65.5594 36.4707 64.6775 36.2188 63.7484 36.2188C60.898 36.2188 58.583 38.5337 58.583 41.3841C58.583 44.2346 60.898 46.5495 63.7484 46.5495C64.6775 46.5495 65.5594 46.2976 66.3469 45.8409C67.1028 46.2818 67.9689 46.5495 68.9138 46.5495C71.7642 46.5495 74.0792 44.2346 74.0792 41.3841C74.0792 38.5337 71.7642 36.2188 68.9138 36.2188ZM64.4098 43.8724C64.1894 43.9353 63.9689 43.9668 63.7484 43.9668C62.3311 43.9668 61.1657 42.8015 61.1657 41.3841C61.1657 39.9668 62.3311 38.8014 63.7484 38.8014C63.9689 38.8014 64.2051 38.8487 64.4098 38.8959C64.0004 39.6361 63.7484 40.4708 63.7484 41.3841C63.7484 42.2975 64.0004 43.1322 64.4098 43.8724ZM68.9138 43.9668C67.4965 43.9668 66.3311 42.8015 66.3311 41.3841C66.3311 39.9668 67.4965 38.8014 68.9138 38.8014C70.3311 38.8014 71.4965 39.9668 71.4965 41.3841C71.4965 42.8015 70.3311 43.9668 68.9138 43.9668Z" fill="#E39600"/>
<path d="M93.3077 30.2502L39.1655 13.1477C38.7876 13.0217 35.7639 12.0296 34.3151 15.6674L29.8584 29.762H19.874C17.7323 29.7778 16 31.5101 16 33.6361V67.1954C16 69.3372 17.7323 71.0694 19.874 71.0694H76.6619C78.0162 71.0694 79.1973 70.3765 79.8902 69.3214C79.8902 69.3214 81.6383 69.8096 82.032 69.8096C83.7328 69.8096 85.2131 68.723 85.7171 67.1009L95.8274 35.1007C96.1423 34.1243 96.3628 31.0691 93.3077 30.2502ZM35.2127 21.3683L61.8114 29.762H44.6616L33.6537 26.2817L35.2127 21.3683ZM32.882 28.7542L36.1104 29.7778H32.5671L32.882 28.7542ZM77.9532 67.1954H77.9375C77.9375 67.9041 77.3548 68.4867 76.6461 68.4867H19.874C19.1654 68.4867 18.5827 67.9041 18.5827 67.1954V33.6361C18.5827 32.9274 19.1654 32.3447 19.874 32.3447H76.6619C77.3705 32.3447 77.9532 32.9274 77.9532 33.6361V67.1954ZM83.2604 66.3293C83.0556 66.9907 82.2997 67.3844 81.6383 67.1639L80.5202 66.8174V43.8094L89.4809 46.6441L83.2604 66.3293ZM90.2525 44.1716L80.5202 41.1007V35.6833L91.8116 39.2424L90.2525 44.1716ZM93.3707 34.329L92.599 36.7857L80.4572 32.9589C80.1265 31.1479 78.5517 29.7778 76.6619 29.7778H70.3784L35.9844 18.9116L36.7561 16.4548C36.9608 15.7934 37.701 15.3997 38.3781 15.6202L92.5203 32.7069C93.6069 32.9904 93.4651 33.9983 93.3707 34.329Z" fill="#E39600"/>
</g>
</g>
<defs>
<filter id="filter0_d" x="0" y="-10" width="112" height="112" filterUnits="userSpaceOnUse" color-interpolation-filters="sRGB">
<feFlood flood-opacity="0" result="BackgroundImageFix"/>
<feColorMatrix in="SourceAlpha" type="matrix" values="0 0 0 0 0 0 0 0 0 0 0 0 0 0 0 0 0 0 127 0"/>
<feOffset dy="4"/>
<feGaussianBlur stdDeviation="8"/>
<feColorMatrix type="matrix" values="0 0 0 0 0.890196 0 0 0 0 0.588235 0 0 0 0 0 0 0 0 1 0"/>
<feBlend mode="normal" in2="BackgroundImageFix" result="effect1_dropShadow"/>
<feBlend mode="normal" in="SourceGraphic" in2="effect1_dropShadow" result="shape"/>
</filter>
<clipPath id="clip0">
<rect x="16" y="2" width="80" height="80" fill="white"/>
</clipPath>
</defs>
</svg>
