<svg width="52" height="60" viewBox="0 0 52 60" fill="none" xmlns="http://www.w3.org/2000/svg">
<path d="M49.8675 9.71553L26.8987 0.179165C26.3233 -0.0596631 25.6766 -0.0597803 25.1013 0.179165L2.13254 9.71553C1.25773 10.0788 0.6875 10.9329 0.6875 11.8801V23.4729C0.6875 39.4353 10.3354 53.794 25.1143 59.8262C25.682 60.0579 26.3179 60.0579 26.8857 59.8262C41.6643 53.7941 51.3125 39.4355 51.3125 23.4729V11.8801C51.3125 10.9329 50.7424 10.0788 49.8675 9.71553ZM46.625 23.4729C46.625 37.0426 38.6562 49.5344 26 55.1105C13.682 49.6834 5.375 37.4103 5.375 23.4729V13.4448L26 4.88143L46.625 13.4448V23.4729ZM23.4095 31.373L33.4834 21.2992C34.3986 20.3839 35.8825 20.3838 36.7979 21.2992C37.7132 22.2145 37.7131 23.6985 36.7978 24.6137L25.0667 36.3448C24.1512 37.2602 22.6673 37.2599 21.7522 36.3448L15.2021 29.7947C14.2868 28.8793 14.2868 27.3954 15.2021 26.4801C16.1175 25.5649 17.6014 25.5648 18.5166 26.4801L23.4095 31.373Z" fill="#FFB900"/>
</svg>
