<svg width="60" height="60" viewBox="0 0 60 60" fill="none" xmlns="http://www.w3.org/2000/svg">
<path d="M29.4022 31.8626C29.6004 31.87 29.7991 31.875 29.9996 31.875C30.1854 31.875 30.3704 31.8709 30.5548 31.864C34.7516 31.9547 38.8793 33.0652 42.5263 35.0949C43.6574 35.7243 45.0847 35.3178 45.7141 34.1867C46.3436 33.0556 45.9371 31.6283 44.8059 30.9988C43.1269 30.0645 41.3622 29.2946 39.5403 28.6958C43.4212 25.7863 45.9371 21.1501 45.9371 15.9375C45.9371 7.14935 38.7873 0 29.9996 0C21.2114 0 14.0621 7.14935 14.0621 15.9375C14.0621 21.1533 16.5807 25.7922 20.4657 28.7013C16.9066 29.8727 13.5668 31.6951 10.6435 34.0993C5.28445 38.5075 1.55825 44.6562 0.151546 51.4128C-0.28928 53.53 0.238979 55.7043 1.60037 57.3788C2.95489 59.0446 4.96402 60 7.11184 60H25.4293C26.7234 60 27.773 58.9508 27.773 57.6562C27.773 56.3617 26.7234 55.3125 25.4293 55.3125H7.11184C6.11117 55.3125 5.50784 54.754 5.23684 54.4212C4.76947 53.8463 4.58865 53.0983 4.74063 52.3682C7.17456 40.6773 17.4916 32.1396 29.4022 31.8626ZM18.7496 15.9375C18.7496 9.73434 23.796 4.6875 29.9996 4.6875C36.2027 4.6875 41.2496 9.73434 41.2496 15.9375C41.2496 21.9539 36.5026 26.8817 30.5576 27.1738C30.3713 27.1701 30.1854 27.1678 29.9996 27.1678C29.8165 27.1678 29.6338 27.1706 29.4512 27.1738C23.5016 26.8872 18.7496 21.9571 18.7496 15.9375ZM59.9996 43.5736C60.0019 45.1392 59.3898 46.6104 58.277 47.7173L53.9177 52.0523C53.4604 52.5073 52.8626 52.7344 52.2652 52.7344C51.6632 52.7344 51.0613 52.5037 50.6031 52.0432C49.6903 51.1253 49.6944 49.6417 50.6122 48.7289L53.5341 45.8231H40.2521C37.6355 45.8231 35.5074 47.9517 35.5074 50.5678C35.5074 53.1839 37.6099 55.3125 40.1949 55.3125C41.489 55.3125 42.5386 56.3617 42.5386 57.6562C42.5386 58.9508 41.489 60 40.1949 60C37.674 60 35.3119 59.0158 33.5445 57.2282C31.7871 55.4512 30.8199 53.0859 30.8199 50.5678C30.8199 45.3667 35.051 41.1356 40.2521 41.1356H53.319L50.6168 38.4636C49.6967 37.5531 49.688 36.069 50.5985 35.1489C51.5085 34.2288 52.9926 34.2201 53.9131 35.1306L58.2656 39.4345C59.3816 40.5382 59.9973 42.0081 59.9996 43.5736Z" fill="#FFB900"/>
</svg>
