<svg width="112" height="110" viewBox="0 0 112 110" fill="none" xmlns="http://www.w3.org/2000/svg">
<g filter="url(#filter0_d)">
<g clip-path="url(#clip0)">
<path d="M95.8458 54.6954C95.1275 47.4706 91.8998 40.6594 86.7569 35.5164C82.3618 31.1215 76.9824 28.2972 71.322 27.0414V23.0713C73.6339 22.4962 75.3523 20.4035 75.3523 17.9161C75.3523 14.9867 72.9692 12.6035 70.0398 12.6035H58.7896C55.8602 12.6035 53.477 14.9867 53.477 17.9161C53.477 20.4033 55.1955 22.496 57.5072 23.0713V27.0525C51.8642 28.3136 46.5025 31.134 42.1199 35.5165C41.1609 36.4756 40.2765 37.4817 39.4669 38.5274C39.4277 38.5244 39.3885 38.5214 39.3485 38.5214H28.2138C27.351 38.5214 26.6513 39.221 26.6513 40.0839C26.6513 40.9469 27.351 41.6465 28.2138 41.6465H37.3408C36.1952 43.5645 35.2714 45.5787 34.5683 47.6522H17.5625C16.6997 47.6522 16 48.3517 16 49.2147C16 50.0777 16.6997 50.7772 17.5625 50.7772H33.6853C33.235 52.754 32.9765 54.7657 32.9098 56.7831H26.0002C25.1373 56.7831 24.4376 57.4827 24.4376 58.3456C24.4376 59.2086 25.1373 59.9082 26.0002 59.9082H32.9596C33.0915 61.9307 33.4167 63.9426 33.9353 65.914H23.8126C22.9498 65.914 22.2501 66.6136 22.2501 67.4766C22.2501 68.3395 22.9498 69.0391 23.8126 69.0391H34.9325C36.4653 73.094 38.8608 76.8945 42.1199 80.1536C47.2678 85.3015 54.0861 88.53 61.3184 89.2446C62.3506 89.3464 63.3836 89.3969 64.4151 89.3969C70.5124 89.3969 76.5322 87.6323 81.6401 84.306C82.3632 83.8351 82.5678 82.8671 82.0968 82.144C81.6259 81.4208 80.6579 81.2163 79.9347 81.6872C68.7538 88.9681 53.7797 87.3939 44.3297 77.9439C33.2417 66.8559 33.2417 48.8146 44.3297 37.7264C55.4175 26.6386 73.4589 26.6386 84.547 37.7264C93.9845 47.1641 95.5673 62.1254 88.3105 73.3009C87.8405 74.0246 88.0463 74.9925 88.7699 75.4623C89.494 75.9323 90.4615 75.7265 90.9313 75.0028C94.8086 69.0316 96.5539 61.8198 95.8458 54.6954ZM56.602 17.9163C56.602 16.71 57.5833 15.7287 58.7896 15.7287H70.0398C71.246 15.7287 72.2273 16.71 72.2273 17.9163C72.2273 19.1225 71.246 20.1038 70.0398 20.1038H69.7594H59.0697H58.7896C57.5833 20.1038 56.602 19.1224 56.602 17.9163ZM60.6323 26.5153V23.2288H68.1969V26.5097C65.685 26.2109 63.1437 26.2128 60.6323 26.5153Z" fill="#E39600"/>
<path d="M85.6526 77.4854C85.2401 77.4854 84.8385 77.6525 84.5481 77.9432C84.2559 78.2338 84.0901 78.6369 84.0901 79.0479C84.0901 79.4588 84.2559 79.8619 84.5481 80.1525C84.8385 80.4447 85.2402 80.6104 85.6526 80.6104C86.0635 80.6104 86.4651 80.4447 86.7573 80.1525C87.0479 79.8619 87.2151 79.4588 87.2151 79.0479C87.2151 78.6369 87.0481 78.2338 86.7573 77.9432C86.4651 77.6525 86.0634 77.4854 85.6526 77.4854Z" fill="#E39600"/>
<path d="M64.4383 33.5955C51.0727 33.5955 40.199 44.4691 40.199 57.8347C40.199 71.2004 51.0727 82.074 64.4383 82.074C77.8038 82.074 88.6775 71.2004 88.6775 57.8347C88.6775 44.4691 77.8038 33.5955 64.4383 33.5955ZM64.4383 78.949C52.7957 78.949 43.324 69.4771 43.324 57.8347C43.324 46.1924 52.7957 36.7205 64.4383 36.7205C76.0808 36.7205 85.5525 46.1924 85.5525 57.8347C85.5525 69.4771 76.0808 78.949 64.4383 78.949Z" fill="#E39600"/>
<path d="M74.3224 45.7413L66.5832 53.4803C65.936 53.1603 65.208 52.9796 64.4385 52.9796C63.6688 52.9796 62.9409 53.1603 62.2937 53.4803L58.8301 50.0167C58.2198 49.4065 57.2307 49.4065 56.6202 50.0167C56.0101 50.6269 56.0101 51.6163 56.6202 52.2264L60.0839 55.6901C59.7637 56.3373 59.5831 57.0652 59.5831 57.8348C59.5831 60.512 61.7611 62.6902 64.4385 62.6902C67.1158 62.6902 69.2939 60.512 69.2939 57.8348C69.2939 57.0652 69.1131 56.3373 68.7931 55.6901L76.3051 48.1781L76.5321 47.951C77.1422 47.3409 77.1422 46.3515 76.5321 45.7413C75.9219 45.1311 74.9328 45.1311 74.3224 45.7413ZM64.4385 59.5653C63.4844 59.5653 62.7081 58.789 62.7081 57.8349C62.7081 56.8809 63.4844 56.1046 64.4385 56.1046C65.3925 56.1046 66.1688 56.8809 66.1688 57.8349C66.1688 58.789 65.3925 59.5653 64.4385 59.5653Z" fill="#E39600"/>
<path d="M81.1449 56.2915H79.6973C78.8345 56.2915 78.1348 56.991 78.1348 57.854C78.1348 58.717 78.8345 59.4165 79.6973 59.4165H81.1449C82.0077 59.4165 82.7074 58.717 82.7074 57.854C82.7074 56.991 82.0077 56.2915 81.1449 56.2915Z" fill="#E39600"/>
<path d="M49.1797 56.2532H47.7322C46.8694 56.2532 46.1697 56.9527 46.1697 57.8157C46.1697 58.6786 46.8694 59.3782 47.7322 59.3782H49.1797C50.0425 59.3782 50.7422 58.6786 50.7422 57.8157C50.7422 56.9527 50.0425 56.2532 49.1797 56.2532Z" fill="#E39600"/>
<path d="M64.4575 44.1384C65.3203 44.1384 66.02 43.4389 66.02 42.5759V41.1284C66.02 40.2654 65.3203 39.5659 64.4575 39.5659C63.5947 39.5659 62.895 40.2654 62.895 41.1284V42.5759C62.895 43.4389 63.5947 44.1384 64.4575 44.1384Z" fill="#E39600"/>
<path d="M64.4192 71.5312C63.5564 71.5312 62.8567 72.2308 62.8567 73.0938V74.5413C62.8567 75.4042 63.5564 76.1038 64.4192 76.1038C65.282 76.1038 65.9817 75.4042 65.9817 74.5413V73.0938C65.9817 72.2308 65.282 71.5312 64.4192 71.5312Z" fill="#E39600"/>
<path d="M17.5625 65.9136C17.1516 65.9136 16.7484 66.0808 16.4578 66.3714C16.1672 66.662 16 67.0651 16 67.4761C16 67.8886 16.167 68.2901 16.4578 68.5808C16.7486 68.8714 17.1516 69.0386 17.5625 69.0386C17.9734 69.0386 18.3766 68.8714 18.667 68.5808C18.9577 68.2901 19.125 67.887 19.125 67.4761C19.125 67.0651 18.9578 66.662 18.667 66.3714C18.3766 66.0808 17.9734 65.9136 17.5625 65.9136Z" fill="#E39600"/>
</g>
</g>
<defs>
<filter id="filter0_d" x="0" y="-1" width="112" height="112" filterUnits="userSpaceOnUse" color-interpolation-filters="sRGB">
<feFlood flood-opacity="0" result="BackgroundImageFix"/>
<feColorMatrix in="SourceAlpha" type="matrix" values="0 0 0 0 0 0 0 0 0 0 0 0 0 0 0 0 0 0 127 0"/>
<feOffset dy="4"/>
<feGaussianBlur stdDeviation="8"/>
<feColorMatrix type="matrix" values="0 0 0 0 0.890196 0 0 0 0 0.588235 0 0 0 0 0 0 0 0 1 0"/>
<feBlend mode="normal" in2="BackgroundImageFix" result="effect1_dropShadow"/>
<feBlend mode="normal" in="SourceGraphic" in2="effect1_dropShadow" result="shape"/>
</filter>
<clipPath id="clip0">
<rect x="16" y="11" width="80" height="80" fill="white"/>
</clipPath>
</defs>
</svg>
