<svg width="92" height="92" viewBox="0 0 92 92" fill="none" xmlns="http://www.w3.org/2000/svg">
<g filter="url(#filter0_d)">
<g clip-path="url(#clip0)">
<path d="M59.3111 22.058C58.8543 21.5998 58.1122 21.5998 57.654 22.058C57.1967 22.5153 57.1967 23.2574 57.654 23.7156C57.6668 23.7284 57.681 23.7412 57.6938 23.754C58.1543 24.1738 58.8671 24.161 59.3111 23.7156C59.7474 23.2793 59.7684 22.5858 59.3734 22.1262C59.3546 22.1029 59.3335 22.0805 59.3111 22.058Z" fill="#E39600"/>
<path d="M72.5719 15.4277C68.0015 10.8574 60.5661 10.8574 55.9958 15.4277L46.8277 24.5954C43.5203 27.9032 42.5146 32.8603 44.2038 37.1656L41.1652 40.2047C36.8594 38.5155 31.9023 39.5212 28.595 42.8286L19.4264 51.9966C14.8566 56.5665 14.8566 64.0024 19.4264 68.5727C23.9967 73.1426 31.4322 73.1426 36.0025 68.5727L45.1706 59.4046C48.4784 56.0968 49.4836 51.1397 47.7945 46.8344L50.8331 43.7958C55.1732 45.4982 60.1202 44.455 63.4033 41.1714L72.5719 32.0034C77.1417 27.4335 77.1417 19.9976 72.5719 15.4277ZM43.513 57.7471L34.3449 66.9147C30.6805 70.5796 24.7493 70.58 21.0844 66.9147C17.4196 63.2503 17.4191 57.3195 21.0844 53.6542L30.2525 44.4861C32.6462 42.092 36.1201 41.2062 39.3108 42.0591L36.0515 45.3183C34.8004 45.4964 33.6377 46.0732 32.7382 46.9731L23.5715 56.1408C21.2836 58.4273 21.2831 62.1411 23.571 64.4277C25.8575 66.7156 29.5714 66.7165 31.8584 64.4281L41.0265 55.2614C41.926 54.3615 42.5032 53.1987 42.6808 51.9481L45.9405 48.6888C46.7929 51.8795 45.9071 55.353 43.513 57.7471ZM34.3962 53.602C35.3369 54.5436 36.6251 55.0499 38.008 54.9643L30.2003 62.7706C28.8298 64.142 26.6 64.1425 25.2286 62.7701C23.8576 61.4 23.8567 59.1703 25.229 57.7988L33.0353 49.9912C32.9488 51.3842 33.4628 52.6696 34.3962 53.602ZM40.7307 50.5831L39.3684 51.9449C38.4566 52.8572 36.9702 52.8618 36.0538 51.9445C35.1396 51.0317 35.1396 49.5449 36.0542 48.6307L52.6298 32.0551C53.5417 31.1432 55.0281 31.1382 55.9445 32.0555C56.8587 32.9688 56.8587 34.4551 55.9441 35.3693L40.7307 50.5831ZM61.7462 39.5139C59.3521 41.9075 55.8786 42.7938 52.688 41.9409L55.9473 38.6817C57.1974 38.5041 58.3597 37.9273 59.2592 37.0282C59.2596 37.0278 59.2601 37.0273 59.2601 37.0269L68.4268 27.8592C70.7143 25.5732 70.7156 21.8593 68.4273 19.5723C66.5372 17.6808 63.6079 17.3091 61.304 18.6682C60.7465 18.9969 60.5615 19.7156 60.8902 20.2732C61.2193 20.8307 61.938 21.0161 62.4951 20.6874C63.8776 19.8717 65.6354 20.0946 66.7697 21.2299C68.1412 22.6004 68.1416 24.8302 66.7697 26.2017L58.9635 34.0088C59.0495 32.6163 58.5359 31.3309 57.6021 30.398C56.7181 29.5131 55.5412 29.0256 54.2874 29.0256C54.1881 29.0256 54.0892 29.0302 53.9908 29.0361L55.9962 27.0307C56.454 26.5729 56.454 25.8309 55.9962 25.3731C55.5385 24.9153 54.7964 24.9153 54.3387 25.3731L50.9723 28.739C50.0723 29.639 49.4955 30.8017 49.3175 32.0523L46.0582 35.3116C45.2054 32.121 46.0916 28.647 48.4853 26.2534L57.6533 17.0853C61.3177 13.4209 67.249 13.42 70.9143 17.0853C74.5787 20.7502 74.5792 26.6809 70.9143 30.3463L61.7462 39.5139Z" fill="#E39600"/>
<path d="M35.2264 31.226C35.6837 30.7687 35.6837 30.0262 35.2264 29.5684L30.2533 24.5953C29.7955 24.1375 29.053 24.1375 28.5953 24.5953C28.1375 25.053 28.1375 25.7951 28.5953 26.2528L33.5684 31.226C34.0262 31.6837 34.7687 31.6842 35.2264 31.226Z" fill="#E39600"/>
<path d="M22.2505 36.2568C22.2505 36.9041 22.7751 37.4287 23.4224 37.4287H30.455C31.1023 37.4287 31.6269 36.9041 31.6269 36.2568C31.6269 35.6095 31.1023 35.0845 30.455 35.0845H23.4224C22.7751 35.0845 22.2505 35.6095 22.2505 36.2568Z" fill="#E39600"/>
<path d="M41.4287 26.455V19.4223C41.4287 18.7751 40.9041 18.25 40.2568 18.25C39.6095 18.25 39.0845 18.7751 39.0845 19.4223V26.455C39.0845 27.1022 39.6095 27.6268 40.2568 27.6268C40.9041 27.6268 41.4287 27.1022 41.4287 26.455Z" fill="#E39600"/>
<path d="M56.774 52.7736C56.3162 53.2314 56.3162 53.9739 56.774 54.4317L61.7471 59.4048C62.2049 59.8626 62.9469 59.8626 63.4047 59.4048C63.8625 58.947 63.8625 58.205 63.4047 57.7472L58.4315 52.7736C57.9738 52.3163 57.2313 52.3163 56.774 52.7736Z" fill="#E39600"/>
<path d="M50.6885 57.5454V64.578C50.6885 65.2253 51.2131 65.7504 51.8603 65.7504C52.5081 65.7504 53.0327 65.2253 53.0327 64.578V57.5454C53.0327 56.8981 52.5081 56.3735 51.8603 56.3735C51.2131 56.3735 50.6885 56.8981 50.6885 57.5454Z" fill="#E39600"/>
<path d="M69.7504 47.8604C69.7504 47.2131 69.2253 46.6885 68.578 46.6885H61.5459C60.8981 46.6885 60.3735 47.2131 60.3735 47.8604C60.3735 48.5076 60.8981 49.0327 61.5459 49.0327H68.578C69.2253 49.0327 69.7504 48.5076 69.7504 47.8604Z" fill="#E39600"/>
</g>
</g>
<defs>
<filter id="filter0_d" x="0" y="0" width="92.0001" height="92" filterUnits="userSpaceOnUse" color-interpolation-filters="sRGB">
<feFlood flood-opacity="0" result="BackgroundImageFix"/>
<feColorMatrix in="SourceAlpha" type="matrix" values="0 0 0 0 0 0 0 0 0 0 0 0 0 0 0 0 0 0 127 0"/>
<feOffset dy="4"/>
<feGaussianBlur stdDeviation="8"/>
<feColorMatrix type="matrix" values="0 0 0 0 0.890196 0 0 0 0 0.588235 0 0 0 0 0 0 0 0 1 0"/>
<feBlend mode="normal" in2="BackgroundImageFix" result="effect1_dropShadow"/>
<feBlend mode="normal" in="SourceGraphic" in2="effect1_dropShadow" result="shape"/>
</filter>
<clipPath id="clip0">
<rect x="16" y="12" width="60.0001" height="60" fill="white"/>
</clipPath>
</defs>
</svg>
